<svg width="40" height="40" viewBox="0 0 40 40" fill="none" xmlns="http://www.w3.org/2000/svg">
<path d="M16.344 20L23.414 27.072C23.7783 27.4492 23.9799 27.9544 23.9753 28.4788C23.9708 29.0032 23.7605 29.5048 23.3896 29.8756C23.0188 30.2465 22.5172 30.4568 21.9928 30.4613C21.4684 30.4659 20.9632 30.2643 20.586 29.9L12.1 21.414C11.7251 21.0389 11.5144 20.5303 11.5144 20C11.5144 19.4697 11.7251 18.9611 12.1 18.586L20.586 10.1C20.9632 9.73568 21.4684 9.53409 21.9928 9.53865C22.5172 9.54321 23.0188 9.75355 23.3896 10.1244C23.7605 10.4952 23.9708 10.9968 23.9753 11.5212C23.9799 12.0456 23.7783 12.5508 23.414 12.928L16.344 20ZM20 40C31.046 40 40 31.046 40 20C40 8.954 31.046 0 20 0C8.954 0 0 8.954 0 20C0 31.046 8.954 40 20 40Z" fill="white"/>
</svg>
