<svg width="582" height="72" viewBox="0 0 582 72" fill="none" xmlns="http://www.w3.org/2000/svg">
<path d="M25.344 29.96C24.736 28.84 23.856 27.992 22.704 27.416C21.584 26.808 20.256 26.504 18.72 26.504C16.064 26.504 13.936 27.384 12.336 29.144C10.736 30.872 9.936 33.192 9.936 36.104C9.936 39.208 10.768 41.64 12.432 43.4C14.128 45.128 16.448 45.992 19.392 45.992C21.408 45.992 23.104 45.48 24.48 44.456C25.888 43.432 26.912 41.96 27.552 40.04H17.136V33.992H34.992V41.624C34.384 43.672 33.344 45.576 31.872 47.336C30.432 49.096 28.592 50.52 26.352 51.608C24.112 52.696 21.584 53.24 18.768 53.24C15.44 53.24 12.464 52.52 9.84 51.08C7.248 49.608 5.216 47.576 3.744 44.984C2.304 42.392 1.584 39.432 1.584 36.104C1.584 32.776 2.304 29.816 3.744 27.224C5.216 24.6 7.248 22.568 9.84 21.128C12.432 19.656 15.392 18.92 18.72 18.92C22.752 18.92 26.144 19.896 28.896 21.848C31.68 23.8 33.52 26.504 34.416 29.96H25.344ZM64.7865 39.176C64.7865 39.944 64.7385 40.744 64.6425 41.576H46.0665C46.1945 43.24 46.7225 44.52 47.6505 45.416C48.6105 46.28 49.7785 46.712 51.1545 46.712C53.2025 46.712 54.6265 45.848 55.4265 44.12H64.1625C63.7145 45.88 62.8985 47.464 61.7145 48.872C60.5625 50.28 59.1065 51.384 57.3465 52.184C55.5865 52.984 53.6185 53.384 51.4425 53.384C48.8185 53.384 46.4825 52.824 44.4345 51.704C42.3865 50.584 40.7865 48.984 39.6345 46.904C38.4825 44.824 37.9065 42.392 37.9065 39.608C37.9065 36.824 38.4665 34.392 39.5865 32.312C40.7385 30.232 42.3385 28.632 44.3865 27.512C46.4345 26.392 48.7865 25.832 51.4425 25.832C54.0345 25.832 56.3385 26.376 58.3545 27.464C60.3705 28.552 61.9385 30.104 63.0585 32.12C64.2105 34.136 64.7865 36.488 64.7865 39.176ZM56.3865 37.016C56.3865 35.608 55.9065 34.488 54.9465 33.656C53.9865 32.824 52.7865 32.408 51.3465 32.408C49.9705 32.408 48.8025 32.808 47.8425 33.608C46.9145 34.408 46.3385 35.544 46.1145 37.016H56.3865ZM84.0446 46.04V53H79.8686C76.8926 53 74.5726 52.28 72.9086 50.84C71.2446 49.368 70.4126 46.984 70.4126 43.688V33.032H67.1486V26.216H70.4126V19.688H78.6206V26.216H83.9966V33.032H78.6206V43.784C78.6206 44.584 78.8126 45.16 79.1966 45.512C79.5806 45.864 80.2206 46.04 81.1166 46.04H84.0446Z" fill="#172048"/>
<path d="M114.872 53.384C112.536 53.384 110.456 52.984 108.632 52.184C106.808 51.384 105.368 50.296 104.312 48.92C103.256 47.512 102.664 45.944 102.536 44.216H110.648C110.744 45.144 111.176 45.896 111.944 46.472C112.712 47.048 113.656 47.336 114.776 47.336C115.8 47.336 116.584 47.144 117.128 46.76C117.704 46.344 117.992 45.816 117.992 45.176C117.992 44.408 117.592 43.848 116.792 43.496C115.992 43.112 114.696 42.696 112.904 42.248C110.984 41.8 109.384 41.336 108.104 40.856C106.824 40.344 105.72 39.56 104.792 38.504C103.864 37.416 103.4 35.96 103.4 34.136C103.4 32.6 103.816 31.208 104.648 29.96C105.512 28.68 106.76 27.672 108.392 26.936C110.056 26.2 112.024 25.832 114.296 25.832C117.656 25.832 120.296 26.664 122.216 28.328C124.168 29.992 125.288 32.2 125.576 34.952H117.992C117.864 34.024 117.448 33.288 116.744 32.744C116.072 32.2 115.176 31.928 114.056 31.928C113.096 31.928 112.36 32.12 111.848 32.504C111.336 32.856 111.08 33.352 111.08 33.992C111.08 34.76 111.48 35.336 112.28 35.72C113.112 36.104 114.392 36.488 116.12 36.872C118.104 37.384 119.72 37.896 120.968 38.408C122.216 38.888 123.304 39.688 124.232 40.808C125.192 41.896 125.688 43.368 125.72 45.224C125.72 46.792 125.272 48.2 124.376 49.448C123.512 50.664 122.248 51.624 120.584 52.328C118.952 53.032 117.048 53.384 114.872 53.384ZM145.67 46.04V53H141.494C138.518 53 136.198 52.28 134.534 50.84C132.87 49.368 132.038 46.984 132.038 43.688V33.032H128.774V26.216H132.038V19.688H140.246V26.216H145.622V33.032H140.246V43.784C140.246 44.584 140.438 45.16 140.822 45.512C141.206 45.864 141.846 46.04 142.742 46.04H145.67ZM148.61 39.56C148.61 36.808 149.122 34.392 150.146 32.312C151.202 30.232 152.626 28.632 154.418 27.512C156.21 26.392 158.21 25.832 160.418 25.832C162.306 25.832 163.954 26.216 165.362 26.984C166.802 27.752 167.906 28.76 168.674 30.008V26.216H176.882V53H168.674V49.208C167.874 50.456 166.754 51.464 165.314 52.232C163.906 53 162.258 53.384 160.37 53.384C158.194 53.384 156.21 52.824 154.418 51.704C152.626 50.552 151.202 48.936 150.146 46.856C149.122 44.744 148.61 42.312 148.61 39.56ZM168.674 39.608C168.674 37.56 168.098 35.944 166.946 34.76C165.826 33.576 164.45 32.984 162.818 32.984C161.186 32.984 159.794 33.576 158.642 34.76C157.522 35.912 156.962 37.512 156.962 39.56C156.962 41.608 157.522 43.24 158.642 44.456C159.794 45.64 161.186 46.232 162.818 46.232C164.45 46.232 165.826 45.64 166.946 44.456C168.098 43.272 168.674 41.656 168.674 39.608ZM191.028 30.68C191.988 29.208 193.188 28.056 194.628 27.224C196.068 26.36 197.668 25.928 199.428 25.928V34.616H197.172C195.124 34.616 193.588 35.064 192.564 35.96C191.54 36.824 191.028 38.36 191.028 40.568V53H182.82V26.216H191.028V30.68ZM218.279 46.04V53H214.103C211.127 53 208.807 52.28 207.143 50.84C205.479 49.368 204.647 46.984 204.647 43.688V33.032H201.383V26.216H204.647V19.688H212.855V26.216H218.231V33.032H212.855V43.784C212.855 44.584 213.047 45.16 213.431 45.512C213.815 45.864 214.455 46.04 215.351 46.04H218.279ZM248.099 39.176C248.099 39.944 248.051 40.744 247.955 41.576H229.379C229.507 43.24 230.035 44.52 230.963 45.416C231.923 46.28 233.091 46.712 234.467 46.712C236.515 46.712 237.939 45.848 238.739 44.12H247.475C247.027 45.88 246.211 47.464 245.027 48.872C243.875 50.28 242.419 51.384 240.659 52.184C238.899 52.984 236.931 53.384 234.755 53.384C232.131 53.384 229.795 52.824 227.747 51.704C225.699 50.584 224.099 48.984 222.947 46.904C221.795 44.824 221.219 42.392 221.219 39.608C221.219 36.824 221.779 34.392 222.899 32.312C224.051 30.232 225.651 28.632 227.699 27.512C229.747 26.392 232.099 25.832 234.755 25.832C237.347 25.832 239.651 26.376 241.667 27.464C243.683 28.552 245.251 30.104 246.371 32.12C247.523 34.136 248.099 36.488 248.099 39.176ZM239.699 37.016C239.699 35.608 239.219 34.488 238.259 33.656C237.299 32.824 236.099 32.408 234.659 32.408C233.283 32.408 232.115 32.808 231.155 33.608C230.227 34.408 229.651 35.544 229.427 37.016H239.699ZM250.797 39.56C250.797 36.808 251.309 34.392 252.333 32.312C253.389 30.232 254.813 28.632 256.605 27.512C258.397 26.392 260.397 25.832 262.605 25.832C264.365 25.832 265.965 26.2 267.405 26.936C268.877 27.672 270.029 28.664 270.861 29.912V17.48H279.069V53H270.861V49.16C270.093 50.44 268.989 51.464 267.549 52.232C266.141 53 264.493 53.384 262.605 53.384C260.397 53.384 258.397 52.824 256.605 51.704C254.813 50.552 253.389 48.936 252.333 46.856C251.309 44.744 250.797 42.312 250.797 39.56ZM270.861 39.608C270.861 37.56 270.285 35.944 269.133 34.76C268.013 33.576 266.637 32.984 265.005 32.984C263.373 32.984 261.981 33.576 260.829 34.76C259.709 35.912 259.149 37.512 259.149 39.56C259.149 41.608 259.709 43.24 260.829 44.456C261.981 45.64 263.373 46.232 265.005 46.232C266.637 46.232 268.013 45.64 269.133 44.456C270.285 43.272 270.861 41.656 270.861 39.608ZM333.627 26.216L326.379 53H317.307L313.083 35.624L308.715 53H299.691L292.395 26.216H300.603L304.395 45.368L308.907 26.216H317.595L322.155 45.272L325.899 26.216H333.627ZM340.885 23.432C339.445 23.432 338.261 23.016 337.333 22.184C336.437 21.32 335.989 20.264 335.989 19.016C335.989 17.736 336.437 16.68 337.333 15.848C338.261 14.984 339.445 14.552 340.885 14.552C342.293 14.552 343.445 14.984 344.341 15.848C345.269 16.68 345.733 17.736 345.733 19.016C345.733 20.264 345.269 21.32 344.341 22.184C343.445 23.016 342.293 23.432 340.885 23.432ZM344.965 26.216V53H336.757V26.216H344.965ZM365.842 46.04V53H361.666C358.69 53 356.37 52.28 354.706 50.84C353.042 49.368 352.21 46.984 352.21 43.688V33.032H348.946V26.216H352.21V19.688H360.418V26.216H365.794V33.032H360.418V43.784C360.418 44.584 360.61 45.16 360.994 45.512C361.378 45.864 362.018 46.04 362.914 46.04H365.842ZM386.878 25.928C389.95 25.928 392.414 26.952 394.27 29C396.126 31.016 397.054 33.8 397.054 37.352V53H388.894V38.456C388.894 36.664 388.43 35.272 387.502 34.28C386.574 33.288 385.326 32.792 383.758 32.792C382.19 32.792 380.942 33.288 380.014 34.28C379.086 35.272 378.622 36.664 378.622 38.456V53H370.414V17.48H378.622V29.816C379.454 28.632 380.59 27.688 382.03 26.984C383.47 26.28 385.086 25.928 386.878 25.928ZM439.425 19.544V53H435.057V37.832H418.017V53H413.649V19.544H418.017V34.232H435.057V19.544H439.425ZM445.252 39.752C445.252 37.064 445.796 34.712 446.884 32.696C447.972 30.648 449.46 29.064 451.348 27.944C453.268 26.824 455.396 26.264 457.732 26.264C460.036 26.264 462.036 26.76 463.732 27.752C465.428 28.744 466.692 29.992 467.524 31.496V26.696H471.94V53H467.524V48.104C466.66 49.64 465.364 50.92 463.636 51.944C461.94 52.936 459.956 53.432 457.684 53.432C455.348 53.432 453.236 52.856 451.348 51.704C449.46 50.552 447.972 48.936 446.884 46.856C445.796 44.776 445.252 42.408 445.252 39.752ZM467.524 39.8C467.524 37.816 467.124 36.088 466.324 34.616C465.524 33.144 464.436 32.024 463.06 31.256C461.716 30.456 460.228 30.056 458.596 30.056C456.964 30.056 455.476 30.44 454.132 31.208C452.788 31.976 451.716 33.096 450.916 34.568C450.116 36.04 449.716 37.768 449.716 39.752C449.716 41.768 450.116 43.528 450.916 45.032C451.716 46.504 452.788 47.64 454.132 48.44C455.476 49.208 456.964 49.592 458.596 49.592C460.228 49.592 461.716 49.208 463.06 48.44C464.436 47.64 465.524 46.504 466.324 45.032C467.124 43.528 467.524 41.784 467.524 39.8ZM481.577 22.424C480.745 22.424 480.041 22.136 479.465 21.56C478.889 20.984 478.601 20.28 478.601 19.448C478.601 18.616 478.889 17.912 479.465 17.336C480.041 16.76 480.745 16.472 481.577 16.472C482.377 16.472 483.049 16.76 483.593 17.336C484.169 17.912 484.457 18.616 484.457 19.448C484.457 20.28 484.169 20.984 483.593 21.56C483.049 22.136 482.377 22.424 481.577 22.424ZM483.689 26.696V53H479.321V26.696H483.689ZM503.038 19.304C506.59 19.304 509.694 20.008 512.35 21.416C515.006 22.824 517.054 24.808 518.494 27.368C519.966 29.896 520.702 32.824 520.702 36.152C520.702 39.448 519.966 42.376 518.494 44.936C517.054 47.496 514.99 49.48 512.302 50.888C509.646 52.296 506.558 53 503.038 53H490.414V19.304H503.038ZM502.51 45.896C505.614 45.896 508.03 45.048 509.758 43.352C511.486 41.656 512.35 39.256 512.35 36.152C512.35 33.048 511.486 30.632 509.758 28.904C508.03 27.176 505.614 26.312 502.51 26.312H498.622V45.896H502.51ZM537.481 53.384C534.857 53.384 532.489 52.824 530.377 51.704C528.297 50.584 526.649 48.984 525.433 46.904C524.249 44.824 523.657 42.392 523.657 39.608C523.657 36.856 524.265 34.44 525.48 32.36C526.697 30.248 528.361 28.632 530.473 27.512C532.585 26.392 534.953 25.832 537.577 25.832C540.201 25.832 542.569 26.392 544.681 27.512C546.793 28.632 548.457 30.248 549.673 32.36C550.889 34.44 551.497 36.856 551.497 39.608C551.497 42.36 550.873 44.792 549.625 46.904C548.409 48.984 546.729 50.584 544.585 51.704C542.473 52.824 540.105 53.384 537.481 53.384ZM537.481 46.28C539.049 46.28 540.377 45.704 541.465 44.552C542.585 43.4 543.145 41.752 543.145 39.608C543.145 37.464 542.601 35.816 541.513 34.664C540.457 33.512 539.145 32.936 537.577 32.936C535.977 32.936 534.649 33.512 533.593 34.664C532.537 35.784 532.009 37.432 532.009 39.608C532.009 41.752 532.521 43.4 533.545 44.552C534.601 45.704 535.913 46.28 537.481 46.28ZM554.219 39.608C554.219 36.824 554.779 34.392 555.899 32.312C557.051 30.232 558.635 28.632 560.651 27.512C562.699 26.392 565.035 25.832 567.659 25.832C571.019 25.832 573.819 26.712 576.059 28.472C578.331 30.232 579.819 32.712 580.523 35.912H571.787C571.051 33.864 569.627 32.84 567.515 32.84C566.011 32.84 564.811 33.432 563.915 34.616C563.019 35.768 562.571 37.432 562.571 39.608C562.571 41.784 563.019 43.464 563.915 44.648C564.811 45.8 566.011 46.376 567.515 46.376C569.627 46.376 571.051 45.352 571.787 43.304H580.523C579.819 46.44 578.331 48.904 576.059 50.696C573.787 52.488 570.987 53.384 567.659 53.384C565.035 53.384 562.699 52.824 560.651 51.704C558.635 50.584 557.051 48.984 555.899 46.904C554.779 44.824 554.219 42.392 554.219 39.608Z" fill="url(#paint0_linear_13344_38957)"/>
<defs>
<linearGradient id="paint0_linear_13344_38957" x1="101" y1="30" x2="581.849" y2="46.4305" gradientUnits="userSpaceOnUse">
<stop stop-color="#45BDBF"/>
<stop offset="1" stop-color="#005C7B"/>
</linearGradient>
</defs>
</svg>
