<svg width="86" height="20" viewBox="0 0 86 20" fill="none" xmlns="http://www.w3.org/2000/svg">
<path d="M14.2372 2.32V19H11.5012V11.704H3.65319V19H0.917188V2.32H3.65319V9.472H11.5012V2.32H14.2372ZM16.9271 12.328C16.9271 11 17.1991 9.824 17.7431 8.8C18.3031 7.776 19.0551 6.984 19.9991 6.424C20.9591 5.848 22.0151 5.56 23.1671 5.56C24.2071 5.56 25.1111 5.768 25.8791 6.184C26.6631 6.584 27.2871 7.088 27.7511 7.696V5.776H30.5111V19H27.7511V17.032C27.2871 17.656 26.6551 18.176 25.8551 18.592C25.0551 19.008 24.1431 19.216 23.1191 19.216C21.9831 19.216 20.9431 18.928 19.9991 18.352C19.0551 17.76 18.3031 16.944 17.7431 15.904C17.1991 14.848 16.9271 13.656 16.9271 12.328ZM27.7511 12.376C27.7511 11.464 27.5591 10.672 27.1751 10C26.8071 9.328 26.3191 8.816 25.7111 8.464C25.1031 8.112 24.4471 7.936 23.7431 7.936C23.0391 7.936 22.3831 8.112 21.7751 8.464C21.1671 8.8 20.6711 9.304 20.2871 9.976C19.9191 10.632 19.7351 11.416 19.7351 12.328C19.7351 13.24 19.9191 14.04 20.2871 14.728C20.6711 15.416 21.1671 15.944 21.7751 16.312C22.3991 16.664 23.0551 16.84 23.7431 16.84C24.4471 16.84 25.1031 16.664 25.7111 16.312C26.3191 15.96 26.8071 15.448 27.1751 14.776C27.5591 14.088 27.7511 13.288 27.7511 12.376ZM35.4967 4.024C35.0007 4.024 34.5847 3.856 34.2487 3.52C33.9127 3.184 33.7447 2.768 33.7447 2.272C33.7447 1.776 33.9127 1.36 34.2487 1.024C34.5847 0.687999 35.0007 0.519999 35.4967 0.519999C35.9767 0.519999 36.3847 0.687999 36.7207 1.024C37.0567 1.36 37.2247 1.776 37.2247 2.272C37.2247 2.768 37.0567 3.184 36.7207 3.52C36.3847 3.856 35.9767 4.024 35.4967 4.024ZM36.8407 5.776V19H34.1047V5.776H36.8407ZM46.4328 2.152C48.2088 2.152 49.7608 2.504 51.0888 3.208C52.4168 3.912 53.4408 4.904 54.1608 6.184C54.8968 7.448 55.2648 8.912 55.2648 10.576C55.2648 12.224 54.8968 13.688 54.1608 14.968C53.4408 16.248 52.4088 17.24 51.0648 17.944C49.7368 18.648 48.1928 19 46.4328 19H40.1208V2.152H46.4328ZM46.1688 15.448C47.7208 15.448 48.9288 15.024 49.7928 14.176C50.6568 13.328 51.0888 12.128 51.0888 10.576C51.0888 9.024 50.6568 7.816 49.7928 6.952C48.9288 6.088 47.7208 5.656 46.1688 5.656H44.2248V15.448H46.1688ZM63.6543 19.192C62.3423 19.192 61.1583 18.912 60.1023 18.352C59.0623 17.792 58.2383 16.992 57.6303 15.952C57.0383 14.912 56.7423 13.696 56.7423 12.304C56.7423 10.928 57.0463 9.72 57.6543 8.68C58.2623 7.624 59.0943 6.816 60.1503 6.256C61.2063 5.696 62.3903 5.416 63.7023 5.416C65.0143 5.416 66.1983 5.696 67.2543 6.256C68.3103 6.816 69.1423 7.624 69.7503 8.68C70.3583 9.72 70.6623 10.928 70.6623 12.304C70.6623 13.68 70.3503 14.896 69.7263 15.952C69.1183 16.992 68.2783 17.792 67.2063 18.352C66.1503 18.912 64.9663 19.192 63.6543 19.192ZM63.6543 15.64C64.4383 15.64 65.1023 15.352 65.6463 14.776C66.2063 14.2 66.4863 13.376 66.4863 12.304C66.4863 11.232 66.2143 10.408 65.6703 9.832C65.1423 9.256 64.4863 8.968 63.7023 8.968C62.9023 8.968 62.2383 9.256 61.7103 9.832C61.1823 10.392 60.9183 11.216 60.9183 12.304C60.9183 13.376 61.1743 14.2 61.6863 14.776C62.2143 15.352 62.8703 15.64 63.6543 15.64ZM72.0236 12.304C72.0236 10.912 72.3036 9.696 72.8636 8.656C73.4396 7.616 74.2316 6.816 75.2396 6.256C76.2636 5.696 77.4316 5.416 78.7436 5.416C80.4236 5.416 81.8236 5.856 82.9436 6.736C84.0796 7.616 84.8236 8.856 85.1756 10.456H80.8076C80.4396 9.432 79.7276 8.92 78.6716 8.92C77.9196 8.92 77.3196 9.216 76.8716 9.808C76.4236 10.384 76.1996 11.216 76.1996 12.304C76.1996 13.392 76.4236 14.232 76.8716 14.824C77.3196 15.4 77.9196 15.688 78.6716 15.688C79.7276 15.688 80.4396 15.176 80.8076 14.152H85.1756C84.8236 15.72 84.0796 16.952 82.9436 17.848C81.8076 18.744 80.4076 19.192 78.7436 19.192C77.4316 19.192 76.2636 18.912 75.2396 18.352C74.2316 17.792 73.4396 16.992 72.8636 15.952C72.3036 14.912 72.0236 13.696 72.0236 12.304Z" fill="#172048"/>
</svg>
