<svg width="12" height="13" viewBox="0 0 12 13" fill="none" xmlns="http://www.w3.org/2000/svg">
<path d="M5.99935 12.8813C4.9468 12.1166 3.97118 11.2781 3.08268 10.3748C1.74935 9.01827 0.166016 6.998 0.166016 5.07285C0.165438 4.08966 0.507273 3.12843 1.14826 2.31079C1.78925 1.49316 2.70058 0.855881 3.76691 0.47961C4.83324 0.103339 6.00664 0.00499 7.13861 0.197009C8.27059 0.389028 9.31025 0.862784 10.126 1.55832C10.6691 2.01892 11.0996 2.56671 11.3926 3.16997C11.6855 3.77324 11.8351 4.42001 11.8327 5.07285C11.8327 6.998 10.2494 9.01827 8.91602 10.3748C8.02752 11.2781 7.0519 12.1166 5.99935 12.8813ZM5.99935 2.94326C5.33631 2.94326 4.70042 3.16763 4.23158 3.56701C3.76274 3.96638 3.49935 4.50805 3.49935 5.07285C3.49935 5.63766 3.76274 6.17933 4.23158 6.5787C4.70042 6.97808 5.33631 7.20244 5.99935 7.20244C6.66239 7.20244 7.29828 6.97808 7.76712 6.5787C8.23596 6.17933 8.49935 5.63766 8.49935 5.07285C8.49935 4.50805 8.23596 3.96638 7.76712 3.56701C7.29828 3.16763 6.66239 2.94326 5.99935 2.94326Z" fill="#696871"/>
</svg>
