<svg width="10" height="15" viewBox="0 0 10 15" fill="none" xmlns="http://www.w3.org/2000/svg">
<path d="M7.93377 0.393921H1.40043C1.08807 0.393921 0.788496 0.499623 0.567619 0.687773C0.346743 0.875923 0.222656 1.13111 0.222656 1.39719V14.5912H3.00043V13.1715H6.33377V14.5912H9.11155V1.39719C9.11155 1.13111 8.98746 0.875923 8.76658 0.687773C8.54571 0.499623 8.24613 0.393921 7.93377 0.393921ZM3.00043 10.8053H1.88932V9.85877H3.00043V10.8053ZM3.00043 8.43904H1.88932V7.49255H3.00043V8.43904ZM3.00043 6.07283H1.88932V5.12634H3.00043V6.07283ZM3.00043 3.70662H1.88932V2.76013H3.00043V3.70662ZM5.22266 10.8053H4.11155V9.85877H5.22266V10.8053ZM5.22266 8.43904H4.11155V7.49255H5.22266V8.43904ZM5.22266 6.07283H4.11155V5.12634H5.22266V6.07283ZM5.22266 3.70662H4.11155V2.76013H5.22266V3.70662ZM7.44488 10.8053H6.33377V9.85877H7.44488V10.8053ZM7.44488 8.43904H6.33377V7.49255H7.44488V8.43904ZM7.44488 6.07283H6.33377V5.12634H7.44488V6.07283ZM7.44488 3.70662H6.33377V2.76013H7.44488V3.70662Z" fill="#696871"/>
</svg>
